<?xml version="1.0" encoding="UTF-8" standalone="no"?>
<!-- Created with Inkscape (http://www.inkscape.org/) -->

<svg
   xmlns="http://www.w3.org/2000/svg"
   width="129.58594"
   height="35.859375"
   viewBox="0 0 129.58594 35.859375"
   fill="currentColor"
   stroke="currentColor"
   stroke-width="0"
   stroke-linecap="round"
   stroke-linejoin="round"
   xmlns:svg="http://www.w3.org/2000/svg">
   <path d="M 0,35.390625 11.648438,0.46875 h 11.085937 l 12,34.921875 h -9.28125 L 23.085937,27.960937 H 11.460938 L 9.1875,35.390625 Z M 13.40625,21.632812 h 7.664062 l -0.46875,-1.5 q -0.914062,-3 -1.78125,-6.281249 Q 17.953125,10.570313 17.109375,7.0546875 16.3125,10.59375 15.515625,13.875 14.742188,17.15625 13.875,20.132812 Z m 34.695312,14.226563 q -4.710937,0 -8.460937,-2.085938 -3.726563,-2.085937 -5.90625,-6.070312 -2.15625,-4.007813 -2.15625,-9.75 0,-5.765625 2.179687,-9.7734375 2.203125,-4.0078125 5.953125,-6.09375 Q 43.460937,0 48.101562,0 52.25,0 55.554687,1.5 q 3.304688,1.5 5.390625,4.359375 2.085938,2.859375 2.578125,6.9375 H 55.15625 q -0.398438,-2.554687 -2.226563,-4.03125 -1.804687,-1.5 -4.617187,-1.5 -3.84375,0 -6.070313,2.8125 -2.203125,2.789063 -2.203125,7.875 0,5.25 2.226563,7.945312 2.226562,2.695313 6,2.695313 2.8125,0 4.640625,-1.476563 1.828125,-1.5 2.273437,-4.054687 h 8.367188 q -0.234375,2.34375 -1.359375,4.617187 -1.101563,2.273438 -3.046875,4.125 -1.945313,1.851563 -4.710938,2.953125 -2.765625,1.101563 -6.328125,1.101563 z m 15.96875,-0.46875 V 0.46875 h 12.890625 l 4.453125,13.59375 q 0.351563,1.195313 0.796875,3.117187 0.46875,1.921875 0.9375,4.148438 0.46875,2.226562 0.890625,4.3125 0.398438,-2.085938 0.84375,-4.289063 0.46875,-2.226562 0.914063,-4.148437 0.46875,-1.945312 0.820312,-3.140625 L 91,0.46875 h 12.91406 V 35.390625 H 95.59375 V 20.34375 q 0,-1.335938 0.04687,-3.492188 0.07031,-2.179687 0.140625,-4.710937 0.07031,-2.53125 0.117187,-4.875 Q 95.3125,9.75 94.65625,12.257813 q -0.632813,2.507812 -1.21875,4.640624 -0.585938,2.109375 -1.007813,3.445313 l -4.96875,15.046875 H 80.546875 L 75.507812,20.34375 Q 75.109375,19.054687 74.523437,17.015625 73.9375,14.976563 73.28125,12.5625 72.648437,10.125 72.0625,7.6640625 q 0.04687,2.296875 0.117187,4.7343755 0.07031,2.4375 0.117188,4.546874 0.07031,2.085938 0.07031,3.398438 v 15.046875 z m 41.281248,0 V 0.46875 h 24.23438 v 6.75 H 113.625 v 7.21875 h 14.69531 v 6.609375 H 113.625 v 7.59375 h 15.9375 v 6.75 z" />
</svg>
